<svg width="250" height="250" xmlns="http://www.w3.org/2000/svg">

 <g>
  <title>Layer 1</title>
  <g id="svg_16">
   <path id="svg_1" fill="#000" d="m154.405,71.39499c-4.85,0 -9.2,2.15 -12.18,5.53l-106.66,0l0,127.32c-3.38,2.98 -5.53,7.33 -5.53,12.18c0,8.96 7.29,16.25 16.25,16.25s16.25,-7.29 16.25,-16.25c0,-4.85 -2.15,-9.2 -5.53,-12.18l0,-105.88l85.22,0c2.98,3.38 7.33,5.53 12.18,5.53c8.96,0 16.25,-7.29 16.25,-16.25s-7.29,-16.25 -16.25,-16.25zm0,21.78c-3.05,0 -5.53,-2.48 -5.53,-5.53s2.48,-5.53 5.53,-5.53s5.53,2.48 5.53,5.53s-2.48,5.53 -5.53,5.53z" class="cls-2"/>
   <path id="svg_2" fill="#00a9e8" d="m154.405,22.11499l-95.94,0c-2.98,-3.38 -7.33,-5.53 -12.18,-5.53c-8.96,0 -16.25,7.29 -16.25,16.25s7.29,16.25 16.25,16.25c4.85,0 9.2,-2.15 12.18,-5.53l95.95,0c24.31,0 44.09,19.78 44.09,44.09s-19.78,44.09 -44.09,44.09l-43.33,0l0,-0.03l-21.44,0l0,73.28c-3.38,2.98 -5.53,7.33 -5.53,12.18c0,8.96 7.29,16.25 16.25,16.25s16.25,-7.29 16.25,-16.25c0,-4.85 -2.14,-9.19 -5.52,-12.17l0,-51.82s43.33,0 43.33,0c36.14,0 65.54,-29.4 65.54,-65.53s-29.42,-65.53 -65.56,-65.53zm-54.06,200.58c-3.05,0 -5.53,-2.48 -5.53,-5.53s2.48,-5.53 5.53,-5.53s5.53,2.48 5.53,5.53s-2.48,5.53 -5.53,5.53z" class="cls-1"/>
  </g>
 </g>
</svg>