<?xml version="1.0" encoding="UTF-8"?><svg id="Layer_1" xmlns="http://www.w3.org/2000/svg" viewBox="0 0 1222.9 216.83"><defs><style>.cls-1{fill:#00a9e8;}.cls-2{fill:#000;}</style></defs><path class="cls-2" d="M124.37,54.81c-4.85,0-9.2,2.15-12.18,5.53H5.53v127.32c-3.38,2.98-5.53,7.33-5.53,12.18,0,8.96,7.29,16.25,16.25,16.25s16.25-7.29,16.25-16.25c0-4.85-2.15-9.2-5.53-12.18v-105.88h85.22c2.98,3.38,7.33,5.53,12.18,5.53,8.96,0,16.25-7.29,16.25-16.25s-7.29-16.25-16.25-16.25ZM124.37,76.59c-3.05,0-5.53-2.48-5.53-5.53s2.48-5.53,5.53-5.53,5.53,2.48,5.53,5.53-2.48,5.53-5.53,5.53Z"/><path class="cls-1" d="M124.37,5.53H28.43c-2.98-3.38-7.33-5.53-12.18-5.53C7.29,0,0,7.29,0,16.25s7.29,16.25,16.25,16.25c4.85,0,9.2-2.15,12.18-5.53h95.95c24.31,0,44.09,19.78,44.09,44.09s-19.78,44.09-44.09,44.09h-43.33v-.03h-21.44v73.28c-3.38,2.98-5.53,7.33-5.53,12.18,0,8.96,7.29,16.25,16.25,16.25s16.25-7.29,16.25-16.25c0-4.85-2.14-9.19-5.52-12.17v-51.82s43.33,0,43.33,0c36.14,0,65.54-29.4,65.54-65.53S160.51,5.53,124.37,5.53ZM70.31,206.11c-3.05,0-5.53-2.48-5.53-5.53s2.48-5.53,5.53-5.53,5.53,2.48,5.53,5.53-2.48,5.53-5.53,5.53Z"/><g transform="translate(-302.99,-661.31) scale(3.4980)"><path class="cls-1" d="M162.8,235.8v-32.13h11.92c8.77,0,11.65,4.5,11.65,9.99s-2.88,9.99-11.65,9.99h-9.13v12.15h-2.79ZM165.59,221.22h9.18c6.88,0,8.82-3.78,8.82-7.56s-1.93-7.56-8.82-7.56h-9.18v15.12Z"/><path class="cls-1" d="M187.73,224.19c0-8.28,5-12.24,11.88-12.24s11.88,3.96,11.88,12.24-4.95,12.24-11.88,12.24-11.88-3.96-11.88-12.24ZM208.7,224.19c0-6.61-3.78-9.81-9.09-9.81s-9.09,3.19-9.09,9.81,3.83,9.81,9.09,9.81,9.09-3.19,9.09-9.81Z"/><path class="cls-1" d="M214.24,229.14v-.18h2.79v.18c0,2.61,1.94,4.86,7.2,4.86s7.15-1.8,7.15-4.73c0-6.03-16.51-.94-16.51-10.3,0-3.83,2.79-7.02,9.45-7.02s9.4,3.42,9.4,7.29v.18h-2.79v-.23c0-2.74-2.25-4.81-6.61-4.81s-6.66,1.8-6.66,4.68c0,6.39,16.51.85,16.51,10.35,0,3.82-2.79,7.02-9.94,7.02-6.62,0-9.99-2.97-9.99-7.29Z"/><path class="cls-1" d="M237.14,206.24c0-1.17.85-2.02,2.02-2.02s2.03.85,2.03,2.02-.86,2.02-2.03,2.02-2.02-.85-2.02-2.02ZM237.77,235.8v-23.22h2.79v23.22h-2.79Z"/><path class="cls-1" d="M249.74,235.8v-20.79h-6.03v-2.43h6.03v-6.21h2.79v6.21h6.48v2.43h-6.48v20.79h-2.79Z"/><path class="cls-1" d="M262.16,235.8v-23.22h2.34l.45,3.78h.45c1.75-2.61,4.81-3.78,9.63-3.78v2.66c-.58-.05-1.21-.09-1.8-.09-5.89,0-8.28,3.38-8.28,9.04v11.61h-2.79Z"/><path class="cls-1" d="M275.03,224.19c0-8.28,5-12.24,11.88-12.24s11.88,3.96,11.88,12.24-4.95,12.24-11.88,12.24-11.88-3.96-11.88-12.24ZM296,224.19c0-6.61-3.78-9.81-9.09-9.81s-9.09,3.19-9.09,9.81,3.83,9.81,9.09,9.81,9.09-3.19,9.09-9.81Z"/><path class="cls-1" d="M302.39,235.8v-12.55c0-7.65,4.18-11.29,10.98-11.29s10.98,3.19,10.98,10.84v13h-2.79v-13c0-6.12-3.33-8.41-8.19-8.41s-8.19,2.61-8.19,8.86v12.55h-2.79Z"/><path class="cls-2" d="M341,235.8v-32.13h20.97v2.43h-18.18v13.77h16.15v2.43h-16.15v13.5h-2.79Z"/><path class="cls-2" d="M365.12,235.8v-32.13h2.79v32.13h-2.79Z"/><path class="cls-2" d="M372.41,225.59v-13h2.79v13c0,6.12,3.33,8.41,8.19,8.41s8.19-2.61,8.19-8.86v-12.55h2.79v12.55c0,7.65-4.18,11.29-10.98,11.29s-10.98-3.19-10.98-10.84Z"/><path class="cls-2" d="M396.57,235.8l9.4-11.61-9.4-11.61h3.6l7.38,9.36h.45l7.38-9.36h3.6l-9.4,11.61,9.4,11.61h-3.6l-7.38-9.36h-.45l-7.38,9.36h-3.6Z"/></g></svg>